<mxfile host="app.diagrams.net" modified="2022-09-10T09:40:33.047Z" agent="5.0 (Windows NT 10.0; Win64; x64) AppleWebKit/537.36 (KHTML, like Gecko) Chrome/105.0.0.0 Safari/537.36 Edg/105.0.1343.27" etag="TAuLljW3_U9VBtOabUDf" version="20.3.0" type="github">
  <diagram id="b4QS8AzE71y9KJXJqie6" name="第 1 页">
    <mxGraphModel dx="1422" dy="793" grid="1" gridSize="10" guides="1" tooltips="1" connect="1" arrows="1" fold="1" page="1" pageScale="1" pageWidth="827" pageHeight="1169" background="#F4F1DE" math="0" shadow="0">
      <root>
        <mxCell id="0" />
        <mxCell id="1" parent="0" />
        <mxCell id="mhQiujRXApvYBwxwYqwX-31" style="edgeStyle=orthogonalEdgeStyle;rounded=0;orthogonalLoop=1;jettySize=auto;html=1;exitX=0;exitY=0.5;exitDx=0;exitDy=0;strokeColor=#E07A5F;fontColor=#393C56;fillColor=#F2CC8F;entryX=0.467;entryY=-0.05;entryDx=0;entryDy=0;entryPerimeter=0;" edge="1" parent="1" source="mhQiujRXApvYBwxwYqwX-25" target="mhQiujRXApvYBwxwYqwX-28">
          <mxGeometry relative="1" as="geometry">
            <mxPoint x="380" y="240" as="targetPoint" />
          </mxGeometry>
        </mxCell>
        <mxCell id="mhQiujRXApvYBwxwYqwX-33" value="" style="edgeStyle=orthogonalEdgeStyle;rounded=0;orthogonalLoop=1;jettySize=auto;html=1;strokeColor=#E07A5F;fontColor=#393C56;fillColor=#F2CC8F;" edge="1" parent="1" source="mhQiujRXApvYBwxwYqwX-25" target="mhQiujRXApvYBwxwYqwX-32">
          <mxGeometry relative="1" as="geometry" />
        </mxCell>
        <mxCell id="mhQiujRXApvYBwxwYqwX-36" style="edgeStyle=orthogonalEdgeStyle;rounded=0;orthogonalLoop=1;jettySize=auto;html=1;exitX=1;exitY=0.5;exitDx=0;exitDy=0;entryX=0.5;entryY=0;entryDx=0;entryDy=0;strokeColor=#E07A5F;fontColor=#393C56;fillColor=#F2CC8F;" edge="1" parent="1" source="mhQiujRXApvYBwxwYqwX-25" target="mhQiujRXApvYBwxwYqwX-35">
          <mxGeometry relative="1" as="geometry" />
        </mxCell>
        <mxCell id="mhQiujRXApvYBwxwYqwX-25" value="«Java class»&lt;br&gt;&lt;pre style=&quot;background-color:#ffffff;color:#000000;font-family:&#39;JetBrains Mono&#39;,monospace;font-size:9.8pt;&quot;&gt;DefaultListableBeanFactory&lt;/pre&gt;" style="html=1;strokeColor=#6c8ebf;fillColor=#dae8fc;" vertex="1" parent="1">
          <mxGeometry x="550" y="60" width="210" height="60" as="geometry" />
        </mxCell>
        <mxCell id="mhQiujRXApvYBwxwYqwX-28" value="«Java interface»&lt;br&gt;&lt;pre style=&quot;background-color:#ffffff;color:#000000;font-family:&#39;JetBrains Mono&#39;,monospace;font-size:9.8pt;&quot;&gt;BeanDefinitionRegistry&lt;/pre&gt;" style="html=1;strokeColor=#E07A5F;fontColor=#393C56;fillColor=#F2CC8F;" vertex="1" parent="1">
          <mxGeometry x="50" y="220" width="180" height="60" as="geometry" />
        </mxCell>
        <mxCell id="mhQiujRXApvYBwxwYqwX-37" style="edgeStyle=orthogonalEdgeStyle;rounded=0;orthogonalLoop=1;jettySize=auto;html=1;exitX=0.5;exitY=1;exitDx=0;exitDy=0;strokeColor=#E07A5F;fontColor=#393C56;fillColor=#F2CC8F;entryX=0.5;entryY=0;entryDx=0;entryDy=0;" edge="1" parent="1" source="mhQiujRXApvYBwxwYqwX-32" target="mhQiujRXApvYBwxwYqwX-38">
          <mxGeometry relative="1" as="geometry">
            <mxPoint x="540" y="400" as="targetPoint" />
          </mxGeometry>
        </mxCell>
        <mxCell id="mhQiujRXApvYBwxwYqwX-39" style="edgeStyle=orthogonalEdgeStyle;rounded=0;orthogonalLoop=1;jettySize=auto;html=1;exitX=0.75;exitY=1;exitDx=0;exitDy=0;strokeColor=#E07A5F;fontColor=#393C56;fillColor=#F2CC8F;entryX=0.576;entryY=-0.06;entryDx=0;entryDy=0;entryPerimeter=0;" edge="1" parent="1" source="mhQiujRXApvYBwxwYqwX-32" target="mhQiujRXApvYBwxwYqwX-40">
          <mxGeometry relative="1" as="geometry">
            <mxPoint x="780" y="410" as="targetPoint" />
          </mxGeometry>
        </mxCell>
        <mxCell id="mhQiujRXApvYBwxwYqwX-32" value="《Java class》&lt;br&gt;&lt;pre style=&quot;background-color:#ffffff;color:#000000;font-family:&#39;JetBrains Mono&#39;,monospace;font-size:9.8pt;&quot;&gt;AbstractAutowireCapableBeanFactory&lt;/pre&gt;" style="html=1;strokeColor=#6c8ebf;fillColor=#dae8fc;" vertex="1" parent="1">
          <mxGeometry x="515" y="220" width="280" height="60" as="geometry" />
        </mxCell>
        <mxCell id="mhQiujRXApvYBwxwYqwX-63" style="edgeStyle=orthogonalEdgeStyle;rounded=0;orthogonalLoop=1;jettySize=auto;html=1;exitX=0;exitY=0.5;exitDx=0;exitDy=0;entryX=1;entryY=0.75;entryDx=0;entryDy=0;strokeColor=#E07A5F;fontColor=#393C56;fillColor=#F2CC8F;" edge="1" parent="1" source="mhQiujRXApvYBwxwYqwX-35" target="mhQiujRXApvYBwxwYqwX-44">
          <mxGeometry relative="1" as="geometry" />
        </mxCell>
        <mxCell id="mhQiujRXApvYBwxwYqwX-64" style="edgeStyle=orthogonalEdgeStyle;rounded=0;orthogonalLoop=1;jettySize=auto;html=1;exitX=1;exitY=0.5;exitDx=0;exitDy=0;entryX=0.5;entryY=0;entryDx=0;entryDy=0;strokeColor=#E07A5F;fontColor=#393C56;fillColor=#F2CC8F;" edge="1" parent="1" source="mhQiujRXApvYBwxwYqwX-35" target="mhQiujRXApvYBwxwYqwX-49">
          <mxGeometry relative="1" as="geometry" />
        </mxCell>
        <mxCell id="mhQiujRXApvYBwxwYqwX-65" style="edgeStyle=orthogonalEdgeStyle;rounded=0;orthogonalLoop=1;jettySize=auto;html=1;exitX=0.5;exitY=1;exitDx=0;exitDy=0;entryX=0.5;entryY=0;entryDx=0;entryDy=0;strokeColor=#E07A5F;fontColor=#393C56;fillColor=#F2CC8F;" edge="1" parent="1" source="mhQiujRXApvYBwxwYqwX-35" target="mhQiujRXApvYBwxwYqwX-48">
          <mxGeometry relative="1" as="geometry" />
        </mxCell>
        <mxCell id="mhQiujRXApvYBwxwYqwX-35" value="《Java interface》&lt;br&gt;&lt;pre style=&quot;background-color:#ffffff;color:#000000;font-family:&#39;JetBrains Mono&#39;,monospace;font-size:9.8pt;&quot;&gt;ConfigurableListableBeanFactory&lt;/pre&gt;" style="html=1;strokeColor=#E07A5F;fontColor=#393C56;fillColor=#F2CC8F;" vertex="1" parent="1">
          <mxGeometry x="1180" y="220" width="230" height="60" as="geometry" />
        </mxCell>
        <mxCell id="mhQiujRXApvYBwxwYqwX-41" style="edgeStyle=orthogonalEdgeStyle;rounded=0;orthogonalLoop=1;jettySize=auto;html=1;exitX=0.25;exitY=1;exitDx=0;exitDy=0;strokeColor=#E07A5F;fontColor=#393C56;fillColor=#F2CC8F;" edge="1" parent="1" source="mhQiujRXApvYBwxwYqwX-38" target="mhQiujRXApvYBwxwYqwX-42">
          <mxGeometry relative="1" as="geometry">
            <mxPoint x="300" y="560" as="targetPoint" />
          </mxGeometry>
        </mxCell>
        <mxCell id="mhQiujRXApvYBwxwYqwX-43" style="edgeStyle=orthogonalEdgeStyle;rounded=0;orthogonalLoop=1;jettySize=auto;html=1;exitX=0.75;exitY=1;exitDx=0;exitDy=0;strokeColor=#E07A5F;fontColor=#393C56;fillColor=#F2CC8F;entryX=0.5;entryY=0;entryDx=0;entryDy=0;" edge="1" parent="1" source="mhQiujRXApvYBwxwYqwX-38" target="mhQiujRXApvYBwxwYqwX-44">
          <mxGeometry relative="1" as="geometry">
            <mxPoint x="480" y="550" as="targetPoint" />
          </mxGeometry>
        </mxCell>
        <mxCell id="mhQiujRXApvYBwxwYqwX-38" value="«Java Class»&lt;br&gt;&lt;pre style=&quot;background-color:#ffffff;color:#000000;font-family:&#39;JetBrains Mono&#39;,monospace;font-size:9.8pt;&quot;&gt;AbstractBeanFactory&lt;/pre&gt;" style="html=1;strokeColor=#6c8ebf;fillColor=#dae8fc;" vertex="1" parent="1">
          <mxGeometry x="390" y="350" width="170" height="60" as="geometry" />
        </mxCell>
        <mxCell id="mhQiujRXApvYBwxwYqwX-55" style="edgeStyle=orthogonalEdgeStyle;rounded=0;orthogonalLoop=1;jettySize=auto;html=1;exitX=0.5;exitY=1;exitDx=0;exitDy=0;entryX=0.5;entryY=0;entryDx=0;entryDy=0;strokeColor=#E07A5F;fontColor=#393C56;fillColor=#F2CC8F;" edge="1" parent="1" source="mhQiujRXApvYBwxwYqwX-40" target="mhQiujRXApvYBwxwYqwX-54">
          <mxGeometry relative="1" as="geometry" />
        </mxCell>
        <mxCell id="mhQiujRXApvYBwxwYqwX-40" value="«Java interface»&lt;br&gt;&lt;pre style=&quot;background-color:#ffffff;color:#000000;font-family:&#39;JetBrains Mono&#39;,monospace;font-size:9.8pt;&quot;&gt;AutowireCapableBeanFactory&lt;/pre&gt;" style="html=1;strokeColor=#E07A5F;fontColor=#393C56;fillColor=#F2CC8F;" vertex="1" parent="1">
          <mxGeometry x="617" y="350" width="210" height="60" as="geometry" />
        </mxCell>
        <mxCell id="mhQiujRXApvYBwxwYqwX-45" style="edgeStyle=orthogonalEdgeStyle;rounded=0;orthogonalLoop=1;jettySize=auto;html=1;exitX=0.25;exitY=1;exitDx=0;exitDy=0;strokeColor=#6c8ebf;fontColor=#393C56;fillColor=#dae8fc;entryX=0.5;entryY=0;entryDx=0;entryDy=0;" edge="1" parent="1" source="mhQiujRXApvYBwxwYqwX-42" target="mhQiujRXApvYBwxwYqwX-46">
          <mxGeometry relative="1" as="geometry">
            <mxPoint x="150" y="700" as="targetPoint" />
          </mxGeometry>
        </mxCell>
        <mxCell id="mhQiujRXApvYBwxwYqwX-42" value="«Java class»&lt;br&gt;&lt;pre style=&quot;background-color:#ffffff;color:#000000;font-family:&#39;JetBrains Mono&#39;,monospace;font-size:9.8pt;&quot;&gt;FactoryBeanRegistrySupport&lt;/pre&gt;" style="html=1;strokeColor=#6c8ebf;fillColor=#dae8fc;" vertex="1" parent="1">
          <mxGeometry x="280" y="550" width="190" height="60" as="geometry" />
        </mxCell>
        <mxCell id="mhQiujRXApvYBwxwYqwX-58" style="edgeStyle=orthogonalEdgeStyle;rounded=0;orthogonalLoop=1;jettySize=auto;html=1;exitX=0.25;exitY=1;exitDx=0;exitDy=0;entryX=0.5;entryY=0;entryDx=0;entryDy=0;strokeColor=#E07A5F;fontColor=#393C56;fillColor=#F2CC8F;" edge="1" parent="1" source="mhQiujRXApvYBwxwYqwX-44" target="mhQiujRXApvYBwxwYqwX-56">
          <mxGeometry relative="1" as="geometry" />
        </mxCell>
        <mxCell id="mhQiujRXApvYBwxwYqwX-59" style="edgeStyle=orthogonalEdgeStyle;rounded=0;orthogonalLoop=1;jettySize=auto;html=1;exitX=0.75;exitY=1;exitDx=0;exitDy=0;entryX=0.5;entryY=0;entryDx=0;entryDy=0;strokeColor=#E07A5F;fontColor=#393C56;fillColor=#F2CC8F;" edge="1" parent="1" source="mhQiujRXApvYBwxwYqwX-44" target="mhQiujRXApvYBwxwYqwX-57">
          <mxGeometry relative="1" as="geometry" />
        </mxCell>
        <mxCell id="mhQiujRXApvYBwxwYqwX-44" value="«Java interface»&lt;br&gt;&lt;pre style=&quot;background-color:#ffffff;color:#000000;font-family:&#39;JetBrains Mono&#39;,monospace;font-size:9.8pt;&quot;&gt;ConfigurableBeanFactory&lt;/pre&gt;" style="html=1;strokeColor=#E07A5F;fontColor=#393C56;fillColor=#F2CC8F;" vertex="1" parent="1">
          <mxGeometry x="880" y="350" width="170" height="60" as="geometry" />
        </mxCell>
        <mxCell id="mhQiujRXApvYBwxwYqwX-46" value="«Java Class»&lt;br&gt;&lt;pre style=&quot;background-color:#ffffff;color:#000000;font-family:&#39;JetBrains Mono&#39;,monospace;font-size:9.8pt;&quot;&gt;DefaultSingletonBeanRegistry&lt;/pre&gt;" style="html=1;strokeColor=#6c8ebf;fillColor=#dae8fc;" vertex="1" parent="1">
          <mxGeometry x="194" y="660" width="220" height="60" as="geometry" />
        </mxCell>
        <mxCell id="mhQiujRXApvYBwxwYqwX-48" value="«Java class»&lt;br&gt;&lt;pre style=&quot;background-color:#ffffff;color:#000000;font-family:&#39;JetBrains Mono&#39;,monospace;font-size:9.8pt;&quot;&gt;ListableBeanFactory&lt;/pre&gt;" style="html=1;strokeColor=#d6b656;fillColor=#F2CC8F;" vertex="1" parent="1">
          <mxGeometry x="1215" y="370" width="160" height="50" as="geometry" />
        </mxCell>
        <mxCell id="mhQiujRXApvYBwxwYqwX-62" style="edgeStyle=orthogonalEdgeStyle;rounded=0;orthogonalLoop=1;jettySize=auto;html=1;exitX=0.5;exitY=1;exitDx=0;exitDy=0;entryX=0.75;entryY=0;entryDx=0;entryDy=0;strokeColor=#E07A5F;fontColor=#393C56;fillColor=#F2CC8F;" edge="1" parent="1" source="mhQiujRXApvYBwxwYqwX-49" target="mhQiujRXApvYBwxwYqwX-54">
          <mxGeometry relative="1" as="geometry" />
        </mxCell>
        <mxCell id="mhQiujRXApvYBwxwYqwX-49" value="«Java class»&lt;br&gt;&lt;pre style=&quot;background-color:#ffffff;color:#000000;font-family:&#39;JetBrains Mono&#39;,monospace;font-size:9.8pt;&quot;&gt;AutowireCapableBeanFactory&lt;/pre&gt;" style="html=1;strokeColor=#6c8ebf;fillColor=#F2CC8F;" vertex="1" parent="1">
          <mxGeometry x="1550" y="350" width="230" height="55" as="geometry" />
        </mxCell>
        <mxCell id="mhQiujRXApvYBwxwYqwX-54" value="«Java interface»&lt;br&gt;&lt;pre style=&quot;background-color:#ffffff;color:#000000;font-family:&#39;JetBrains Mono&#39;,monospace;font-size:9.8pt;&quot;&gt;beanFactory&lt;/pre&gt;" style="html=1;strokeColor=#E07A5F;fontColor=#393C56;fillColor=#F2CC8F;" vertex="1" parent="1">
          <mxGeometry x="1000" y="910" width="180" height="60" as="geometry" />
        </mxCell>
        <mxCell id="mhQiujRXApvYBwxwYqwX-61" style="edgeStyle=orthogonalEdgeStyle;rounded=0;orthogonalLoop=1;jettySize=auto;html=1;exitX=0.5;exitY=1;exitDx=0;exitDy=0;entryX=0;entryY=0.75;entryDx=0;entryDy=0;strokeColor=#E07A5F;fontColor=#393C56;fillColor=#F2CC8F;" edge="1" parent="1" source="mhQiujRXApvYBwxwYqwX-56" target="mhQiujRXApvYBwxwYqwX-54">
          <mxGeometry relative="1" as="geometry" />
        </mxCell>
        <mxCell id="mhQiujRXApvYBwxwYqwX-56" value="«Java Class»&lt;br&gt;&lt;pre style=&quot;background-color:#ffffff;color:#000000;font-family:&#39;JetBrains Mono&#39;,monospace;font-size:9.8pt;&quot;&gt;&lt;pre style=&quot;font-family: &amp;quot;JetBrains Mono&amp;quot;, monospace; font-size: 9.8pt;&quot;&gt;HierarchicalBeanFactory&lt;/pre&gt;&lt;/pre&gt;" style="html=1;strokeColor=#6c8ebf;fillColor=#dae8fc;" vertex="1" parent="1">
          <mxGeometry x="350" y="780" width="220" height="60" as="geometry" />
        </mxCell>
        <mxCell id="mhQiujRXApvYBwxwYqwX-57" value="«Java Class»&lt;br&gt;&lt;pre style=&quot;background-color:#ffffff;color:#000000;font-family:&#39;JetBrains Mono&#39;,monospace;font-size:9.8pt;&quot;&gt;&lt;pre style=&quot;font-family: &amp;quot;JetBrains Mono&amp;quot;, monospace; font-size: 9.8pt;&quot;&gt;SingletonBeanRegistry&lt;/pre&gt;&lt;/pre&gt;" style="html=1;strokeColor=#6c8ebf;fillColor=#dae8fc;" vertex="1" parent="1">
          <mxGeometry x="607" y="770" width="220" height="60" as="geometry" />
        </mxCell>
      </root>
    </mxGraphModel>
  </diagram>
</mxfile>
